#!OML:ASF H:\Punching\Project 1\Capture day 1\Session 1\female.ASF
:FULLY-SPECIFIED
:DEGREES
1689
root 1.55369 15.1995 2.49154 19.1266 -12.061 -3.31744
lowerback 5.42196 2.43507 -1.95812
upperback -3.29707 3.18661 1.378
thorax -6.67293 1.69474 2.17927
lowerneck -12.5147 3.47312 13.4571
upperneck 35.3275 1.9778 -2.20419
head 14.5278 2.31674 -2.95096
rclavicle -5.01931e-015 -1.65985e-014
rhumerus -28.7723 24.6862 -68.7148
rradius 103.803
rwrist -30.705
rhand -4.78422 -22.4455
rfingers 7.12502
rthumb 21.0007 -51.3285
lclavicle -5.01931e-015 -1.65985e-014
lhumerus -31.0734 -35.5233 82.6672
lradius 119.093
lwrist 10.3901
lhand -13.8449 15.4407
lfingers 7.12502
lthumb 12.2787 45.0602
rfemur -2.16413 4.57334 1.796
rtibia 15.9102
rfoot 7.11471 -30.4652
rtoes -5.32281
lfemur -46.948 0.533687 -12.1687
ltibia 44.2275
lfoot -11.7051 16.6275
ltoes -3.54422
1690
root 1.62917 15.2494 2.5373 19.2619 -12.5925 -3.35846
lowerback 5.51042 2.50983 -2.07769
upperback -3.21508 3.27542 1.38237
thorax -6.64962 1.74278 2.23843
lowerneck -12.4863 3.51524 13.6371
upperneck 35.1073 2.06547 -2.40263
head 14.433 2.34101 -3.04689
rclavicle 6.11511e-014 -8.64713e-015
rhumerus -29.5159 24.9704 -69.6657
rradius 100.846
rwrist -30.6469
rhand -4.56343 -22.4812
rfingers 7.12502
rthumb 21.2128 -51.3405
lclavicle 6.11511e-014 -8.64713e-015
lhumerus -33.6677 -35.0947 83.6856
lradius 118.135
lwrist 10.4345
lhand -13.5735 15.8018
lfingers 7.12502
lthumb 12.5403 45.4055
rfemur -3.56586 4.65246 1.38366
rtibia 17.2877
rfoot 8.50203 -30.0864
rtoes -2.11033
lfemur -46.3707 0.727022 -12.5568
ltibia 43.3932
lfoot -11.6001 16.8666
ltoes -3.15169
1691
root 1.70112 15.2987 2.58122 19.3885 -13.1071 -3.3667
lowerback 5.58909 2.56844 -2.21971
upperback -3.13232 3.33894 1.35826
thorax -6.61822 1.77844 2.28367
lowerneck -12.4556 3.56807 13.8305
upperneck 34.8798 2.15783 -2.58045
head 14.3366 2.37133 -3.13522
rclavicle -9.59136e-015 6.16232e-015
rhumerus -30.159 25.0268 -70.6271
rradius 97.8089
rwrist -30.531
rhand -4.1737 -22.5468
rfingers 7.12502
rthumb 21.5872 -51.3636
lclavicle -9.59136e-015 6.16232e-015
lhumerus -36.146 -34.5988 84.6064
lradius 117.167
lwrist 10.2231
lhand -13.304 15.9879
lfingers 7.12502
lthumb 12.8001 45.5755
rfemur -4.99227 4.61218 0.989489
rtibia 18.7465
rfoot 9.55316 -29.6002
rtoes 1.23231
lfemur -45.7824 0.885966 -12.9545
ltibia 42.5136
lfoot -11.4715 17.1179
ltoes -2.7248
1692
root 1.76935 15.3471 2.62315 19.5046 -13.5945 -3.3383
lowerback 5.66198 2.60909 -2.38282
upperback -3.05302 3.37484 1.30575
thorax -6.58514 1.8006 2.31442
lowerneck -12.422 3.63034 14.0304
upperneck 34.6562 2.25244 -2.73038
head 14.2433 2.40714 -3.21242
rclavicle -9.96408e-015 4.27387e-015
rhumerus -30.7171 24.8435 -71.5854
rradius 94.728
rwrist -30.2942
rhand -3.65375 -22.6517
rfingers 7.12502
rthumb 22.0864 -51.4104
lclavicle -9.96408e-015 4.27387e-015
lhumerus -38.5135 -34.0573 85.4315
lradius 116.215
lwrist 9.81477
lhand -13.0354 16.0315
lfingers 7.12502
lthumb 13.0591 45.6026
rfemur -6.43057 4.42541 0.619192
rtibia 20.2776
rfoot 10.183 -28.9923
rtoes 4.42562
lfemur -45.1894 1.00177 -13.3624
ltibia 41.5936
lfoot -11.3124 17.3789
ltoes -2.29258
1693
root 1.83375 15.3941 2.66324 19.6069 -14.034 -3.28036
lowerback 5.72783 2.62846 -2.55486
upperback -2.97605 3.38026 1.23299
thorax -6.54787 1.80746 2.33289
lowerneck -12.3772 3.69765 14.234
upperneck 34.4345 2.34801 -2.86019
head 14.1498 2.44649 -3.28156
rclavicle -9.34288e-015 2.88238e-015
rhumerus -31.191 24.424 -72.5153
rradius 91.6181
rwrist -29.8719
rhand -3.05472 -22.7939
rfingers 7.12502
rthumb 22.6614 -51.4834
lclavicle -9.34288e-015 2.88238e-015
lhumerus -40.7685 -33.4854 86.1735
lradius 115.301
lwrist 9.30803
lhand -12.7807 15.9635
lfingers 7.12502
lthumb 13.3046 45.5188
rfemur -7.85343 4.09135 0.293295
rtibia 21.8565
rfoot 10.3545 -28.2842
rtoes 7.09771
lfemur -44.5952 1.06868 -13.7709
ltibia 40.6404
lfoot -11.1228 17.6383
ltoes -1.84521
1694
root 1.89445 15.4396 2.70166 19.6919 -14.4125 -3.19838
lowerback 5.80837 2.62529 -2.72203
upperback -2.91356 3.35433 1.14251
thorax -6.53091 1.79847 2.3329
lowerneck -12.3189 3.76642 14.436
upperneck 34.2337 2.43885 -2.9637
head 14.0634 2.48783 -3.34057
rclavicle -2.127e-014 -4.67144e-015
rhumerus -31.6205 23.7764 -73.4175
rradius 88.506
rwrist -29.2229
rhand -2.47669 -22.9503
rfingers 7.12502
rthumb 23.2161 -51.571
lclavicle -2.127e-014 -4.67144e-015
lhumerus -42.9347 -32.9032 86.856
lradius 114.457
lwrist 8.80509
lhand -12.534 15.8674
lfingers 7.12502
lthumb 13.5424 45.407
rfemur -9.23754 3.63309 0.024788
rtibia 23.4551
rfoot 10.0965 -27.5267
rtoes 9.07333
lfemur -43.9998 1.07985 -14.1721
ltibia 39.66
lfoot -10.9047 17.8917
ltoes -1.39038
